War.Horse.2011.DVDSCR.AC3.XViD-ART3MiS









Plot : Young Albert enlists to service in WWI after his beloved horse, Joey, is sold to the cavalry. Albert's hopeful journey takes him out of England and across Europe as the war rages on

General
Complete name : War Horse 2011 DVDSCR.XViD.AC3-ART3MiS.avi
Format : AVI
Format/Info : Audio Video Interleave
File size : 675 MiB
Duration : 2h 26mn
Overall bit rate : 643 Kbps
Writing application : VirtualDubMod 1.5.4.1 (build 2178/release)
Writing library : VirtualDub build 32842/release

Video
ID : 0
Format : MPEG-4 Visual
Format profile : Advanced Simple@L5
Format settings, BVOP : 1
Format settings, QPel : No
Format settings, GMC : No warppoints
Format settings, Matrix : Custom
Codec ID : XVID
Codec ID/Hint : XviD
Duration : 2h 26mn
Bit rate : 538 Kbps
Width : 576 pixels
Height : 240 pixels
Display aspect ratio : 2.40:1
Frame rate : 23.976 fps
Color space : YUV
Chroma subsampling : 4:2:0
Bit depth : 8 bits
Scan type : Progressive
Compression mode : Lossy
Bits/(Pixel*Frame) : 0.162
Stream size : 564 MiB (84%)
Writing library : XviD 1.2.1 (UTC 2008-12-04)

Audio
ID : 1
Format : AC-3
Format/Info : Audio Coding 3
Mode extension : CM (complete main)
Codec ID : 2000
Duration : 2h 26mn
Bit rate mode : Constant
Bit rate : 96.0 Kbps
Channel(s) : 2 channels
Channel positions : Front: L R
Sampling rate : 48.0 KHz
Bit depth : 16 bits
Compression mode : Lossy
Stream size : 101 MiB (15%)
Alignment : Aligned on interleaves
Interleave, duration : 42 ms (1.00 video frame)
Interleave, preload duration : 512 ms




